<?xml version="1.0" encoding="utf-8"?>
<!-- Generator: Adobe Illustrator 19.1.0, SVG Export Plug-In . SVG Version: 6.00 Build 0)  -->
<svg version="1.1" id="Layer_1" xmlns="http://www.w3.org/2000/svg" xmlns:xlink="http://www.w3.org/1999/xlink" x="0px" y="0px"
	 viewBox="0 0 80 80" style="enable-background:new 0 0 80 80;" xml:space="preserve">
<style type="text/css">
	.st0{fill:#FFFFFF;}
</style>
<g>
	<path class="st0" d="M11.4,7.3v66.2H70V7.3H11.4z M67.4,71H13.9V58.7l6.8-6.8h37.2v-2.6H23.3l17.1-17.1l8.5,9.8l6.9-6.9
		c0.6,0.3,1.3,0.5,2.1,0.5c2.4,0,4.4-2,4.4-4.4s-2-4.4-4.4-4.4c-2.4,0-4.4,2-4.4,4.4c0,0.8,0.2,1.5,0.5,2.1l-5,5l-8.5-9.8L13.9,55.1
		V9.9h53.5V71z"/>
	<rect x="35.3" y="58.4" class="st0" width="22.6" height="2.6"/>
</g>
</svg>
