<?xml version="1.0" encoding="utf-8"?>
<!-- Generator: Adobe Illustrator 19.1.0, SVG Export Plug-In . SVG Version: 6.00 Build 0)  -->
<svg version="1.1" id="Layer_1" xmlns="http://www.w3.org/2000/svg" xmlns:xlink="http://www.w3.org/1999/xlink" x="0px" y="0px"
	 viewBox="0 0 80 80" style="enable-background:new 0 0 80 80;" xml:space="preserve">
<style type="text/css">
	.st0{fill:#FFFFFF;}
</style>
<path class="st0" d="M69,39.7l-6.7-6.7l-0.5-0.5l6.6-3.9c0.3-0.2,0.5-0.5,0.6-0.9c0-0.4-0.1-0.7-0.3-1L53.4,11.6
	c-0.3-0.3-0.6-0.4-1-0.3c-0.4,0-0.7,0.3-0.9,0.6l-4,6.5l-0.4-0.4l-6.7-6.7c-0.3-0.3-0.7-0.4-1.1-0.3c-0.4,0.1-0.7,0.4-0.9,0.8
	L31.2,32L15.9,47.3c0,0,0,0-0.1,0.1c-0.3,0.4-7.6,9-4.4,20.6c0.1,0.4,0.5,0.8,1,0.9c0.2,0,2.2,0.4,5.1,0.4c4.6,0,11.2-0.9,15.8-5.4
	l14.8-14.8l20.4-7.2c0.4-0.1,0.7-0.5,0.8-0.9C69.4,40.5,69.3,40,69,39.7z M60,30.8l-3.4-3.4l-1.1-1.1l4.6-4.6l5.7,5.7L60,30.8z
	 M52.7,14.4l5.7,5.7l-4.6,4.6l-4.6-4.6L52.7,14.4z M40,14.2l4.5,4.5l-9.4,9.4L40,14.2z M30.1,63.3c-1.3,1-2.7,1.7-4.2,2.2V40.8h-0.1
	l4.3-4.3V63.3z M19.3,47.4l4.2-4.2v23c-1.5,0.3-2.9,0.5-4.2,0.6V47.4z M16.9,50.1v16.7c-1.4,0-2.5-0.1-3.2-0.2
	C11.8,58.9,15.2,52.6,16.9,50.1z M32.5,61.1v-27l0.6-0.6l13.1-13.1l5.9,5.9L37.4,41l1.7,1.7L53.8,28l5.1,5.1c0,0,0,0,0,0l0.8,0.8
	L46.6,47L32.5,61.1z M52.1,45l9.4-9.4l4.5,4.5L52.1,45z"/>
</svg>
