<?xml version="1.0" encoding="utf-8"?>
<!-- Generator: Adobe Illustrator 19.1.0, SVG Export Plug-In . SVG Version: 6.00 Build 0)  -->
<svg version="1.1" id="Layer_1" xmlns="http://www.w3.org/2000/svg" xmlns:xlink="http://www.w3.org/1999/xlink" x="0px" y="0px"
	 viewBox="0 0 80 80" style="enable-background:new 0 0 80 80;" xml:space="preserve">
<style type="text/css">
	.st0{fill:#FFFFFF;}
</style>
<g>
	<rect x="10.9" y="50.1" class="st0" width="17.4" height="9.8"/>
	<path class="st0" d="M76.3,22.4H44.2l-11.9-12c-0.2-0.2-0.5-0.3-0.8-0.3c0,0,0,0,0,0c-0.3,0-0.6,0.1-0.8,0.3L2.9,38.2
		c-0.2,0.2-0.3,0.5-0.3,0.8v29.2c0,0.6,0.5,1.2,1.2,1.2h31.4H48h11.7c0.6,0,1.2-0.5,1.2-1.2V63h15.4c0.6,0,1.2-0.5,1.2-1.2V23.5
		C77.5,22.9,77,22.4,76.3,22.4z M75.1,38.5h-7.7l7.7-7.7V38.5z M75.1,27.5L64.1,38.5h-3.9l-2.3-2.3l11.5-11.5h5.7V27.5z M57.7,24.7
		h8.4l-9.9,9.9l-4.2-4.2L57.7,24.7z M54.4,24.7l-4,4l-3.9-4H54.4z M58.5,67.1H48V50.1H35.1v16.9H4.9V39.5l26.6-26.6l27.1,27.3V67.1z
		 M60.9,60.6V40.9h3.7c0,0,0,0,0,0c0,0,0,0,0,0h10.6v19.7H60.9z"/>
</g>
</svg>
