<?xml version="1.0" encoding="utf-8"?>
<!-- Generator: Adobe Illustrator 19.1.0, SVG Export Plug-In . SVG Version: 6.00 Build 0)  -->
<svg version="1.1" id="Layer_1" xmlns="http://www.w3.org/2000/svg" xmlns:xlink="http://www.w3.org/1999/xlink" x="0px" y="0px"
	 viewBox="0 0 80 80" style="enable-background:new 0 0 80 80;" xml:space="preserve">
<style type="text/css">
	.st0{fill:#FFFFFF;}
</style>
<path class="st0" d="M63.8,15H43.3V5.8h-2.5V15H26.4V5.8h-2.5V15H13.4v51.5h10.5v8.1h2.5v-8.1h14.4v8.1h2.5v-8.1h20.5V15z
	 M61.3,42.2l-18,18V42.1l18-18V42.2z M61.3,20.6l-18,18V19.9l2.5-2.5h15.6V20.6z M40.8,41.1L26.4,55.5V36.8l14.4-14.4V41.1z
	 M40.8,17.4v1.4L26.4,33.3V17.4H40.8z M23.9,17.4v18.4l-8.1,8.1V17.4H23.9z M15.9,47.4l8.1-8.1V58l-6,6h-2.1V47.4z M21.4,64l2.5-2.5
	V64H21.4z M26.4,59l14.4-14.4v18.1L39.5,64H26.4V59z M43.3,64v-0.3l18-18V64H43.3z"/>
</svg>
