<?xml version="1.0" encoding="utf-8"?>
<!-- Generator: Adobe Illustrator 19.1.0, SVG Export Plug-In . SVG Version: 6.00 Build 0)  -->
<svg version="1.1" id="Layer_1" xmlns="http://www.w3.org/2000/svg" xmlns:xlink="http://www.w3.org/1999/xlink" x="0px" y="0px"
	 viewBox="0 0 80 80" style="enable-background:new 0 0 80 80;" xml:space="preserve">
<style type="text/css">
	.st0{fill:#FFFFFF;}
</style>
<g>
	<path class="st0" d="M11.3,7.2v64.5h57.2V7.2H11.3z M13.8,47.3V36.4L40.6,9.7h10.9L13.8,47.3z M13.8,21.7l12-12h11.2L13.8,32.9
		V21.7z M22.3,9.7l-8.5,8.5V9.7H22.3z M66,69.2H13.8V50.9l5.5-5.5H59v-2.5H21.8l7.4-7.4H59V33H31.7l7.5-7.5H59V23H41.7L55,9.7h11
		V69.2z"/>
	<polygon class="st0" points="49.2,54 44.3,58.9 39.7,54.4 34.8,59.3 30,59.3 30,61.8 35.8,61.8 39.7,57.9 44.3,62.5 49.2,57.6 
		53.6,61.9 59,61.9 59,59.5 54.6,59.5 	"/>
</g>
</svg>
