<?xml version="1.0" encoding="utf-8"?>
<!-- Generator: Adobe Illustrator 19.1.0, SVG Export Plug-In . SVG Version: 6.00 Build 0)  -->
<svg version="1.1" id="Layer_1" xmlns="http://www.w3.org/2000/svg" xmlns:xlink="http://www.w3.org/1999/xlink" x="0px" y="0px"
	 viewBox="0 0 80 80" style="enable-background:new 0 0 80 80;" xml:space="preserve">
<style type="text/css">
	.st0{fill:#FFFFFF;}
</style>
<g>
	<path class="st0" d="M36.2,9.9c-0.7,0-1.2,0.5-1.2,1.2v6.8l-6,5.8V11.2c0-0.7-0.5-1.2-1.2-1.2s-1.2,0.5-1.2,1.2v12.6l-5.8-5.8v-6.8
		c0-0.7-0.5-1.2-1.2-1.2s-1.2,0.5-1.2,1.2v7.3v10.1v10.1c0,0.3,0.1,0.6,0.4,0.9l7.9,7.9v24.2c0,0.7,0.5,1.2,1.2,1.2s1.2-0.5,1.2-1.2
		V47.5l8.1-8.1c0.2-0.2,0.4-0.5,0.4-0.9v-10c0,0,0-0.1,0-0.1c0,0,0,0,0-0.1v-10v-7.3C37.4,10.5,36.8,9.9,36.2,9.9z M34.9,21.3v6.6
		l-4.3,4.3l-1.8,1.7v-6.8L34.9,21.3z M26.5,33.9l-5.8-5.8v-6.7l5.8,5.8V33.9z M20.7,38.2v-6.7l5.8,5.8v6.7L20.7,38.2z M34.9,38.1
		l-6,6v-6.7l3.5-3.5l2.6-2.5V38.1z"/>
	<path class="st0" d="M60.3,23.3c-0.7,0-1.2,0.5-1.2,1.2v6.8l-6,5.8V24.6c0-0.7-0.5-1.2-1.2-1.2c-0.7,0-1.2,0.5-1.2,1.2v12.6
		l-5.8-5.8v-6.8c0-0.7-0.5-1.2-1.2-1.2c-0.7,0-1.2,0.5-1.2,1.2v7.3V42v10.1c0,0.3,0.1,0.6,0.4,0.9l7.9,7.9v10.8
		c0,0.7,0.5,1.2,1.2,1.2c0.7,0,1.2-0.5,1.2-1.2V60.9l8.1-8.1c0.2-0.2,0.4-0.5,0.4-0.9V42c0,0,0-0.1,0-0.1c0,0,0,0,0-0.1v-10v-7.3
		C61.5,23.9,60.9,23.3,60.3,23.3z M59,34.7v6.6l-4.3,4.3L53,47.3v-6.8L59,34.7z M50.6,47.3l-5.8-5.8v-6.7l5.8,5.8V47.3z M44.8,51.6
		v-6.7l5.8,5.8v6.7L44.8,51.6z M59,51.5l-6,6v-6.7l3.5-3.5l2.6-2.5V51.5z"/>
</g>
</svg>
