<?xml version="1.0" encoding="utf-8"?>
<!-- Generator: Adobe Illustrator 19.1.0, SVG Export Plug-In . SVG Version: 6.00 Build 0)  -->
<svg version="1.1" id="Layer_1" xmlns="http://www.w3.org/2000/svg" xmlns:xlink="http://www.w3.org/1999/xlink" x="0px" y="0px"
	 viewBox="0 0 80 80" style="enable-background:new 0 0 80 80;" xml:space="preserve">
<style type="text/css">
	.st0{fill:#FFFFFF;}
</style>
<path class="st0" d="M73,14.7c0-0.9-0.3-1.7-1-2.3c-1.9-1.8-5.9-1.8-6.3-1.8h-3.9h-5.3H35l0,0H22.8L12.1,21.4v12.1l-3.2,3.2v33.6
	h52.9V19.5H73V14.7z M57.8,12.9L36.5,34.2L25.5,23.3l10.4-10.4H57.8z M14.4,22.3l9.4-9.4h8.8L14.4,31.2V22.3z M23.9,24.9l10.9,10.9
	L11.2,59.5V37.7L23.9,24.9z M11.2,68v-5.2l25.3-25.3l7,7L29,59l1.6,1.6l14.5-14.5L51,52l1.6-1.6l-5.9-5.9l12.7-12.7V68H11.2z
	 M59.4,28.5L45.1,42.9l-7-7l21.3-21.3v5V28.5z M70.7,17.2h-8.9v-4.3h4c0.9,0,3.7,0.2,4.7,1.2c0.2,0.2,0.3,0.4,0.3,0.7V17.2z"/>
</svg>
