<?xml version="1.0" encoding="utf-8"?>
<!-- Generator: Adobe Illustrator 19.1.0, SVG Export Plug-In . SVG Version: 6.00 Build 0)  -->
<svg version="1.1" id="Layer_1" xmlns="http://www.w3.org/2000/svg" xmlns:xlink="http://www.w3.org/1999/xlink" x="0px" y="0px"
	 viewBox="0 0 80 80" style="enable-background:new 0 0 80 80;" xml:space="preserve">
<style type="text/css">
	.st0{fill:#FFFFFF;}
</style>
<path class="st0" d="M40,9.6c-10.5,0-21.1,2.6-21.1,7.5V63c0,4.9,10.6,7.5,21.1,7.5c10.5,0,21.1-2.6,21.1-7.5V17
	C61.1,12.1,50.5,9.6,40,9.6z M58.7,17c0,1.6-4.4,3.8-11.8,4.7l7.7-7.7C57.2,15,58.7,16.1,58.7,17z M40,22.1c-0.8,0-1.6,0-2.4,0
	l9.6-9.6c1.7,0.2,3.3,0.5,4.7,0.8L43.1,22C42.1,22.1,41.1,22.1,40,22.1z M40,12c1.4,0,2.8,0,4.1,0.1l-9.7,9.7
	c-8.1-0.8-13-3.1-13-4.8C21.3,15,28.6,12,40,12z M40,68c-11.4,0-18.7-3-18.7-5.1v-8.4c3.7,2.5,11.2,3.8,18.7,3.8
	c7.4,0,14.9-1.3,18.7-3.8V63C58.7,65,51.4,68,40,68z M40,55.9c-11.4,0-18.7-3-18.7-5.1v-1.8c3.7,2.5,11.2,3.8,18.7,3.8
	c7.4,0,14.9-1.3,18.7-3.8v1.8C58.7,52.9,51.4,55.9,40,55.9z M40,50.5c-11.4,0-18.7-3-18.7-5.1v-1.8c3.7,2.5,11.2,3.8,18.7,3.8
	c7.4,0,14.9-1.3,18.7-3.8v1.8C58.7,47.5,51.4,50.5,40,50.5z M40,45c-11.4,0-18.7-3-18.7-5.1v-1.8C25.1,40.7,32.6,42,40,42
	c7.4,0,14.9-1.3,18.7-3.8V40C58.7,42,51.4,45,40,45z M40,39.6c-11.4,0-18.7-3-18.7-5.1v-1.8c3.7,2.5,11.2,3.8,18.7,3.8
	c7.4,0,14.9-1.3,18.7-3.8v1.8C58.7,36.6,51.4,39.6,40,39.6z M40,34.1c-11.4,0-18.7-3-18.7-5.1v-8.3c3.7,2.5,11.2,3.8,18.7,3.8
	c7.4,0,14.9-1.3,18.7-3.8v8.3C58.7,31.1,51.4,34.1,40,34.1z"/>
</svg>
