<?xml version="1.0" encoding="utf-8"?>
<!-- Generator: Adobe Illustrator 19.1.0, SVG Export Plug-In . SVG Version: 6.00 Build 0)  -->
<svg version="1.1" id="Layer_1" xmlns="http://www.w3.org/2000/svg" xmlns:xlink="http://www.w3.org/1999/xlink" x="0px" y="0px"
	 viewBox="0 0 80 80" style="enable-background:new 0 0 80 80;" xml:space="preserve">
<style type="text/css">
	.st0{fill:#FFFFFF;}
</style>
<path class="st0" d="M79.9,25.7c0-0.1,0.1-0.3,0.1-0.4c0,0,0,0,0,0c0,0,0,0,0,0c0-0.1,0-0.3-0.1-0.4c0,0,0-0.1,0-0.1
	c0-0.1-0.1-0.3-0.2-0.4c0,0,0,0,0,0L66.3,6.8c0,0,0,0-0.1-0.1c0-0.1-0.1-0.1-0.1-0.1c0,0-0.1-0.1-0.1-0.1c0,0,0,0-0.1-0.1
	c0,0-0.1,0-0.1-0.1c0,0-0.1,0-0.1-0.1c-0.1,0-0.1-0.1-0.2-0.1c0,0-0.1,0-0.1,0c-0.1,0-0.2,0-0.3,0H40.7h0h-25c0,0,0,0-0.1,0
	c-0.1,0-0.2,0-0.2,0c0,0-0.1,0-0.1,0c-0.1,0-0.1,0-0.2,0.1c0,0-0.1,0-0.1,0.1c0,0,0,0-0.1,0c0,0-0.1,0.1-0.1,0.1c0,0-0.1,0-0.1,0.1
	c-0.1,0.1-0.1,0.1-0.2,0.2c0,0,0,0,0,0L1.6,24.4c0,0,0,0,0,0c-0.1,0.1-0.1,0.2-0.2,0.4c0,0,0,0.1,0,0.1c0,0.1-0.1,0.3-0.1,0.4
	c0,0,0,0,0,0c0,0,0,0,0,0c0,0.1,0,0.3,0.1,0.4c0,0,0,0.1,0,0.1c0,0.1,0.1,0.3,0.2,0.4c0,0,0,0,0,0l37.8,49.2
	c0.1,0.1,0.2,0.2,0.3,0.3c0,0,0,0,0.1,0c0.1,0.1,0.2,0.1,0.3,0.2c0,0,0.1,0,0.1,0c0.1,0,0.3,0.1,0.4,0.1c0,0,0,0,0,0c0,0,0,0,0,0
	c0.1,0,0.3,0,0.4-0.1c0,0,0.1,0,0.1,0c0.1,0,0.2-0.1,0.3-0.2c0,0,0,0,0,0c0.1-0.1,0.2-0.2,0.3-0.3l37.9-49.2c0,0,0,0,0,0
	C79.8,26,79.9,25.9,79.9,25.7C79.9,25.7,79.9,25.7,79.9,25.7z M15.6,10.3l8.5,13.5H5.7L15.6,10.3z M29.8,23.8l10.8-13.7l10,13.7
	H29.8z M51.5,26.7l-11,42l-11.9-42H51.5z M43.6,9.1h18.8l-9,13.5L43.6,9.1z M26.9,22.7L18.4,9.1h19.2L26.9,22.7z M25.6,26.7
	l11.5,40.7L5.8,26.7H25.6z M54.6,26.7h20.9l-31.6,41L54.6,26.7z M56.2,23.8l9-13.6l10.3,13.6H56.2z"/>
</svg>
