<?xml version="1.0" encoding="utf-8"?>
<!-- Generator: Adobe Illustrator 19.1.0, SVG Export Plug-In . SVG Version: 6.00 Build 0)  -->
<svg version="1.1" id="Layer_1" xmlns="http://www.w3.org/2000/svg" xmlns:xlink="http://www.w3.org/1999/xlink" x="0px" y="0px"
	 viewBox="0 0 80 80" style="enable-background:new 0 0 80 80;" xml:space="preserve">
<style type="text/css">
	.st0{fill:#FFFFFF;}
</style>
<g>
	<g>
		<path class="st0" d="M51.1,58.2l-8.6-12.2h-6.8v12.2h-1.4V29.8h9.8c4.6,0,8.4,2.8,8.4,8c0,5.2-3.8,8.1-8.4,8.1l8.8,12.2H51.1z
			 M51,37.9c0-3.9-2.7-6.8-6.9-6.8h-8.4v13.6h8.4C48.2,44.7,51,41.8,51,37.9z"/>
	</g>
	<path class="st0" d="M31.8,7.5L38.3,1l-1-1l-7.5,7.5H6.9v22.9L0,37.3l1,1l5.9-5.9V80h72.5V7.5H31.8z M8.3,8.9h20.1L8.3,28.9V8.9z
		 M78.1,78.6H8.3V30.9L30.4,8.9h47.6V78.6z"/>
</g>
</svg>
