<?xml version="1.0" encoding="utf-8"?>
<!-- Generator: Adobe Illustrator 19.1.0, SVG Export Plug-In . SVG Version: 6.00 Build 0)  -->
<svg version="1.1" id="Layer_1" xmlns="http://www.w3.org/2000/svg" xmlns:xlink="http://www.w3.org/1999/xlink" x="0px" y="0px"
	 viewBox="0 0 205.6 63.7" style="enable-background:new 0 0 205.6 63.7;" xml:space="preserve">
<style type="text/css">
	.st0{fill:#FFFFFF;}
</style>
<g>
	<path class="st0" d="M39.2,46.3l-6.9-9.8h-5.4v9.8h-1.1V23.6h7.8c3.7,0,6.7,2.3,6.7,6.4s-3,6.4-6.7,6.4l7,9.8H39.2z M39.1,30.1
		c0-3.1-2.2-5.4-5.5-5.4h-6.7v10.8h6.7C36.9,35.5,39.1,33.2,39.1,30.1z"/>
	<path class="st0" d="M48.8,46.3V23.6h13.8v1H49.9v9.5h12.5v1H49.9v10.1h12.8v1H48.8z"/>
	<path class="st0" d="M69.9,43.1l0.9-0.8c1.4,1.7,3.8,3.4,7,3.4c5.2,0,6.5-3,6.5-5.1c0-7.5-13.7-3.8-13.7-11.5
		c0-3.7,3.4-5.8,7.1-5.8c3.3,0,5.7,1.2,7.3,3.2l-0.8,0.8c-1.6-2.1-3.9-3-6.5-3c-3.3,0-5.9,2-5.9,4.7c0,6.4,13.7,3.1,13.7,11.5
		c0,2.5-1.6,6.1-7.7,6.1C74.3,46.7,71.5,45.1,69.9,43.1z"/>
	<path class="st0" d="M94,46.3V23.6h7.8c4.2,0,6.6,3,6.6,6.4s-2.5,6.4-6.6,6.4h-6.7v9.8H94z M107.3,30.1c0-3.1-2.1-5.4-5.5-5.4h-6.7
		v10.8h6.7C105.1,35.4,107.3,33.2,107.3,30.1z"/>
	<path class="st0" d="M130.1,46.3l-2.5-6.1H115l-2.5,6.1h-1.3l9.4-22.6h1.3l9.4,22.6H130.1z M121.3,24.9l-5.9,14.3h11.8L121.3,24.9z
		"/>
	<path class="st0" d="M154.1,46.3l-5.9-20.6l-5.9,20.6h-1.3l-6.4-22.6h1.2l5.9,21l5.9-21h1.2l5.9,21l5.9-21h1.2l-6.4,22.6H154.1z"/>
	<path class="st0" d="M185.4,46.3l-15.3-20.9v20.9H169V23.6h1.1l15.3,20.7V23.6h1.1v22.6H185.4z"/>
</g>
<path class="st0" d="M25.5,5.9l5.1-5.1L29.7,0l-5.9,5.9H5.7V24L0,29.7l0.8,0.8l4.9-4.9v38.1h199.9V5.9H25.5z M6.8,7h15.9L6.8,22.9V7
	z M204.5,62.6H6.8V24.5L24.3,7h180.1V62.6z"/>
</svg>
