<?xml version="1.0" encoding="utf-8"?>
<!-- Generator: Adobe Illustrator 19.1.0, SVG Export Plug-In . SVG Version: 6.00 Build 0)  -->
<svg version="1.1" id="Layer_1" xmlns="http://www.w3.org/2000/svg" xmlns:xlink="http://www.w3.org/1999/xlink" x="0px" y="0px"
	 viewBox="0 0 80 80" style="enable-background:new 0 0 80 80;" xml:space="preserve">
<style type="text/css">
	.st0{fill:#FFFFFF;}
</style>
<g>
	<path class="st0" d="M62.5,45.8C60,43.3,56.8,42,53,42h-8.2l0,1.3c0,0.1-0.1,3.1-4.3,3.1c-0.6,0-2.2-0.2-3.2-1.1
		c-0.5-0.5-0.7-1.1-0.7-2V42h-2.8L14.5,62v9.1h53.3l0-8.2C67.8,62.5,68.2,51.8,62.5,45.8z M64.6,56.2L52.3,68.5H44l18.4-18.4
		C63.5,52,64.1,54.2,64.6,56.2z M17.1,63.1l17.2-17.9c0.3,0.7,0.7,1.4,1.2,1.9c1.9,1.8,4.7,1.8,5,1.8c4.3,0,6.1-2.4,6.7-4.4H53
		c3.1,0,5.6,1,7.6,3c0.1,0.1,0.2,0.2,0.2,0.3L40.3,68.5H17.1V63.1z M65.2,62.9v5.6H56l9-9C65.2,61.4,65.2,62.8,65.2,62.9z"/>
	<path class="st0" d="M16.2,49.6l15.9-15.9c2.3,1.8,5.2,2.8,8.4,2.8c7.6,0,13.8-6.2,13.8-13.8c0-7.6-6.2-13.8-13.8-13.8
		c-7.6,0-13.8,6.2-13.8,13.8c0,3.5,1.3,6.7,3.5,9.2L14.4,47.8c-0.5,0.5-0.5,1.3,0,1.9c0.3,0.3,0.6,0.4,0.9,0.4
		C15.6,50,16,49.9,16.2,49.6z M40.5,11.5c6.2,0,11.2,5,11.2,11.2c0,6.2-5,11.2-11.2,11.2c-6.2,0-11.2-5-11.2-11.2
		C29.3,16.6,34.4,11.5,40.5,11.5z"/>
	<path class="st0" d="M40.2,17.6c0,0,4.7,1,4.7,4.5c0,0.7,0.6,1.3,1.3,1.3s1.3-0.6,1.3-1.3c0-5.6-6.6-7-6.8-7.1
		c-0.7-0.1-1.4,0.3-1.6,1C39.1,16.7,39.5,17.4,40.2,17.6z"/>
</g>
</svg>
