<?xml version="1.0" encoding="utf-8"?>
<!-- Generator: Adobe Illustrator 19.1.0, SVG Export Plug-In . SVG Version: 6.00 Build 0)  -->
<svg version="1.1" id="Layer_1" xmlns="http://www.w3.org/2000/svg" xmlns:xlink="http://www.w3.org/1999/xlink" x="0px" y="0px"
	 viewBox="0 0 80 80" style="enable-background:new 0 0 80 80;" xml:space="preserve">
<style type="text/css">
	.st0{fill:#FFFFFF;}
</style>
<g>
	<path class="st0" d="M13.8,7.7v55l26.9,11.1l25.5-11.1v-55H13.8z M15.9,24.4L30.5,9.8h7.6L15.9,32V24.4z M15.9,35l23.7-23.7V19
		L15.9,42.6V35z M15.9,45.7L39.6,22v7.6L15.9,53.3V45.7z M39.6,50.9L25.3,65.2l-5.4-2.2l19.7-19.7V50.9z M39.6,53.9v7.6l-6.7,6.7
		L27.5,66L39.6,53.9z M39.6,64.6v6.5L35,69.2L39.6,64.6z M27.5,9.8L15.9,21.3V9.8H27.5z M15.9,56.3l23.7-23.7v7.6L17.8,62.1
		l-1.9-0.8V56.3z M64.1,61.3l-22.3,9.8V9.8h22.3V61.3z"/>
	<path class="st0" d="M53,43.1l6.4-6.4L53,30.3l-6.4,6.4L53,43.1z M56.4,36.7L53,40.1l-3.4-3.4l3.4-3.4L56.4,36.7z"/>
</g>
</svg>
