<?xml version="1.0" encoding="utf-8"?>
<!-- Generator: Adobe Illustrator 19.1.0, SVG Export Plug-In . SVG Version: 6.00 Build 0)  -->
<svg version="1.1" id="Layer_1" xmlns="http://www.w3.org/2000/svg" xmlns:xlink="http://www.w3.org/1999/xlink" x="0px" y="0px"
	 viewBox="0 0 80 80" style="enable-background:new 0 0 80 80;" xml:space="preserve">
<style type="text/css">
	.st0{fill:#FFFFFF;}
</style>
<path class="st0" d="M15.9,8.8l0,27.5c0,0.2-0.1,2.4,0.2,5.4L16,41.7l0.1,0.1c0.5,6.2,2.4,16.2,8.7,22.9C29,69,34.4,71.2,41,71.2
	c0,0,0,0,0,0c0,0,0.1,0,0.2,0c1.4,0,9-0.3,15.5-6.6c6.3-6.1,9.4-15.6,9.4-28.3V8.8H15.9z M27.3,17.1h-2.2l-6.5-6.5h8.6V17.1z
	 M29.1,10.7h8.6l-6.5,6.5h-2.2V10.7z M22.4,17.1h-4.6v-4.6L22.4,17.1z M17.8,19h11.6l-5.9,5.9l-5.7-5.7V19z M40.1,36.4L28.2,48.3
	L24.8,45l15.3-15.3V36.4z M23.5,43.6l-3.4-3.4l3.4-3.4l3.4,3.4L23.5,43.6z M40.1,27.1L28.2,39l-3.4-3.4l15.3-15.3V27.1z M23.5,34.3
	l-3.4-3.4l3.4-3.4l3.4,3.4L23.5,34.3z M28.2,29.6l-3.4-3.4l7.2-7.2h6.7L28.2,29.6z M22.2,26.2l-3.4,3.4l-1-1v-6.7L22.2,26.2z
	 M17.8,36.3v-3l1-1l3.4,3.4L18.8,39l-1-1C17.8,36.9,17.8,36.3,17.8,36.3z M18.8,41.6l3.4,3.4L19,48.2c-0.4-2.1-0.7-4.1-0.9-5.8
	L18.8,41.6z M23.5,46.3l3.4,3.4l-5.7,5.7c-0.7-1.7-1.2-3.4-1.7-5L23.5,46.3z M40.1,39.1v6.7L24.5,61.4c-1-1.3-1.8-2.7-2.5-4.2
	L40.1,39.1z M40.1,69.3c-3.4-0.1-6.5-0.9-9.2-2.3l9.2-9.2V69.3z M33.9,17.1l6.2-6.2v6.2H33.9z M42,12.7l4.4,4.4H42V12.7z M49.1,17.1
	l-6.5-6.5H52v6.5H49.1z M53.8,10.7h9.5l-6.5,6.5h-3V10.7z M64.3,12.3v4.8h-4.8L64.3,12.3z M25.7,62.8l14.4-14.4v6.7L29.3,66
	c-1.1-0.7-2.1-1.6-3.1-2.6C26,63.2,25.9,63,25.7,62.8z M55.4,63.2c-5.2,5-11.2,5.9-13.5,6.1V19h22.3v17.3
	C64.3,48.5,61.3,57.6,55.4,63.2z"/>
</svg>
