<?xml version="1.0" encoding="utf-8"?>
<!-- Generator: Adobe Illustrator 19.1.0, SVG Export Plug-In . SVG Version: 6.00 Build 0)  -->
<svg version="1.1" id="Layer_1" xmlns="http://www.w3.org/2000/svg" xmlns:xlink="http://www.w3.org/1999/xlink" x="0px" y="0px"
	 viewBox="0 0 80 80" style="enable-background:new 0 0 80 80;" xml:space="preserve">
<style type="text/css">
	.st0{fill:#FFFFFF;}
</style>
<g>
	<path class="st0" d="M39.7,35.5c7,0,12.7-5.7,12.7-12.7s-5.7-12.7-12.7-12.7c-7,0-12.7,5.7-12.7,12.7S32.7,35.5,39.7,35.5z
		 M39.7,12.5c4.1,0,7.7,2.5,9.3,6H30.4C32,15,35.6,12.5,39.7,12.5z M29.6,21h20.2c0.1,0.6,0.2,1.2,0.2,1.8c0,5.7-4.6,10.3-10.3,10.3
		c-5.7,0-10.3-4.6-10.3-10.3C29.5,22.2,29.5,21.6,29.6,21z"/>
	<path class="st0" d="M59.9,44c-2.2-2.3-5.2-3.5-8.7-3.5h-7.5l0,1.2c0,0.1-0.1,2.8-4,2.8c-0.5,0-2.1-0.1-2.9-1
		c-0.5-0.4-0.7-1-0.7-1.8v-1.2h-7.9l-0.1,0c-0.1,0-3.2,0.4-6.3,3c-2.8,2.3-6,7-6,15.9v7.8h48.9l0-7.5C64.8,59.3,65.1,49.4,59.9,44z
		 M61.8,53.5L50.5,64.8h-7.6l16.9-16.9C60.8,49.7,61.4,51.7,61.8,53.5z M28.3,42.9h2.2l-12,12C20.2,44.4,27.5,43,28.3,42.9z
		 M18.2,59.3c0-0.3,0-0.5,0-0.8L33.9,43c0.2,0.9,0.6,1.7,1.3,2.3c1.7,1.7,4.3,1.6,4.6,1.6c4,0,5.6-2.2,6.2-4h5.3
		c2.8,0,5.2,0.9,6.9,2.8c0.1,0.1,0.2,0.2,0.2,0.3L39.5,64.8H18.2V59.3z M62.3,59.6v5.1h-8.4l8.3-8.3C62.4,58.3,62.3,59.6,62.3,59.6z
		"/>
</g>
</svg>
