<?xml version="1.0" encoding="utf-8"?>
<!-- Generator: Adobe Illustrator 19.1.0, SVG Export Plug-In . SVG Version: 6.00 Build 0)  -->
<svg version="1.1" id="Layer_1" xmlns="http://www.w3.org/2000/svg" xmlns:xlink="http://www.w3.org/1999/xlink" x="0px" y="0px"
	 viewBox="0 0 80 80" style="enable-background:new 0 0 80 80;" xml:space="preserve">
<style type="text/css">
	.st0{fill:#FFFFFF;}
</style>
<g>
	<path class="st0" d="M68,11.9h-8.6V1.5c0-0.9-0.7-1.5-1.5-1.5c-0.9,0-1.5,0.7-1.5,1.5v10.4h-5.4V1.5c0-0.9-0.7-1.5-1.5-1.5
		c-0.9,0-1.5,0.7-1.5,1.5v10.4h-5.4V1.5c0-0.9-0.7-1.5-1.5-1.5c-0.9,0-1.5,0.7-1.5,1.5v10.4H11.9v56.1h4.6v10.4
		c0,0.9,0.7,1.5,1.5,1.5s1.5-0.7,1.5-1.5V68.1H25v10.4c0,0.9,0.7,1.5,1.5,1.5c0.9,0,1.5-0.7,1.5-1.5V68.1h29.4v10.4
		c0,0.9,0.7,1.5,1.5,1.5c0.9,0,1.5-0.7,1.5-1.5V68.1H68V11.9z M15,29.8L29.7,15h7.8L15,37.6V29.8z M15.2,41.7L41.9,15H49L15,49.1
		v-7.7L15.2,41.7z M25.3,15L15,25.4V15H25.3z M64.9,65H15V52.1l0.7,0.7L53.4,15h11.5V65z"/>
	<rect x="35.5" y="41.7" class="st0" width="12.3" height="5.7"/>
	<rect x="25.7" y="50.5" class="st0" width="33.8" height="8.5"/>
	<circle class="st0" cx="55.2" cy="43.7" r="3.7"/>
	<circle class="st0" cx="55.2" cy="32.6" r="3.7"/>
</g>
</svg>
