<?xml version="1.0" encoding="utf-8"?>
<!-- Generator: Adobe Illustrator 19.1.0, SVG Export Plug-In . SVG Version: 6.00 Build 0)  -->
<svg version="1.1" id="Layer_1" xmlns="http://www.w3.org/2000/svg" xmlns:xlink="http://www.w3.org/1999/xlink" x="0px" y="0px"
	 viewBox="0 0 80 80" style="enable-background:new 0 0 80 80;" xml:space="preserve">
<style type="text/css">
	.st0{fill:#FFFFFF;}
</style>
<path class="st0" d="M55.1,21.7l-7.7-7.4V8.9H32v5.7l-7.1,7v12.4l5.7,7.8l-5.7,6.2v22.3h30.2V48l-5-5.9l5-8.1V21.7z M52.5,34.1H40.8
	l4.2-4.2h8v3.5L52.5,34.1z M47.1,27.7l5.4-5.4l0.3,0.3v5.1H47.1z M34.2,11.1h11V14h-11V11.1z M33.5,16.2h4.9L27.1,27.6v-5L33.5,16.2
	z M27.1,30.7l14.5-14.5h4.6l0.2,0.1L28,34.7l-0.9-1.3V30.7z M29.3,36.5l18.6-18.6l3.1,2.9L31.8,40L29.3,36.5z M27.1,54.6v-4.9h25.8
	v4.9H27.1z M52.9,56.7v4.8H27.1v-4.8H52.9z M27.1,68.3v-4.5h25.8v4.5H27.1z M51.8,47.5H28.5l4-4.4H48L51.8,47.5z M48.3,41H33.9
	l4.6-4.6h12.6L48.3,41z"/>
</svg>
